<svg xmlns="http://www.w3.org/2000/svg" xmlns:xlink="http://www.w3.org/1999/xlink" width="199" zoomAndPan="magnify" viewBox="0 0 149.25 37.5" height="50" preserveAspectRatio="xMidYMid meet" version="1.0"><defs><g/><clipPath id="062e9f79f0"><path d="M 0.613281 28 L 62 28 L 62 37 L 0.613281 37 Z M 0.613281 28 " clip-rule="nonzero"/></clipPath><clipPath id="b17babb55e"><path d="M 3 0.835938 L 59 0.835938 L 59 28 L 3 28 Z M 3 0.835938 " clip-rule="nonzero"/></clipPath></defs><g clip-path="url(#062e9f79f0)"><path fill="#b51dee" d="M 31.265625 31.761719 C 42.503906 31.761719 53.007812 33.675781 61.914062 36.996094 C 54.4375 31.875 43.476562 28.652344 31.265625 28.652344 C 19.050781 28.652344 8.09375 31.878906 0.613281 37 C 9.519531 33.679688 20.023438 31.761719 31.265625 31.761719 Z M 31.265625 31.761719 " fill-opacity="1" fill-rule="nonzero"/></g><g clip-path="url(#b17babb55e)"><path fill="#b51dee" d="M 6.667969 20.121094 C 8.519531 21.589844 10.929688 22.144531 13.277344 22.417969 C 15.625 22.6875 18.019531 22.71875 20.308594 23.3125 C 21.0625 23.507812 21.832031 23.710938 22.578125 23.976562 C 22.8125 24.058594 23.042969 24.148438 23.265625 24.238281 C 24.511719 24.765625 25.605469 25.503906 26.222656 26.699219 C 25.253906 25.429688 23.714844 24.878906 22.074219 24.625 C 22.027344 24.617188 21.976562 24.609375 21.929688 24.605469 C 20.925781 24.464844 19.890625 24.425781 18.914062 24.394531 C 16.300781 24.324219 13.671875 24.78125 11.074219 24.492188 C 8.472656 24.207031 5.746094 22.945312 4.714844 20.535156 C 4.25 22.496094 5.046875 24.695312 6.65625 25.902344 C 8.535156 27.3125 11.121094 27.300781 13.433594 26.875 C 15.746094 26.449219 18.03125 25.667969 20.378906 25.773438 C 22.285156 25.855469 24.492188 26.5 25.570312 27.957031 C 27.429688 27.800781 29.328125 27.71875 31.257812 27.71875 C 33.191406 27.71875 35.089844 27.800781 36.949219 27.957031 C 38.027344 26.5 40.238281 25.855469 42.140625 25.773438 C 44.488281 25.667969 46.769531 26.449219 49.082031 26.875 C 51.394531 27.300781 53.980469 27.3125 55.859375 25.902344 C 57.46875 24.695312 58.265625 22.492188 57.800781 20.535156 C 56.777344 22.941406 54.046875 24.199219 51.445312 24.492188 C 48.84375 24.78125 46.21875 24.328125 43.601562 24.394531 C 42.632812 24.421875 41.59375 24.460938 40.589844 24.605469 C 40.539062 24.609375 40.492188 24.621094 40.441406 24.625 C 38.796875 24.878906 37.265625 25.429688 36.292969 26.699219 C 36.914062 25.503906 38.007812 24.765625 39.25 24.238281 C 39.476562 24.148438 39.710938 24.054688 39.9375 23.976562 C 40.679688 23.710938 41.457031 23.507812 42.207031 23.3125 C 44.496094 22.71875 46.886719 22.6875 49.238281 22.417969 C 51.585938 22.152344 54 21.59375 55.851562 20.121094 C 58.496094 18.023438 59.515625 14.105469 58.222656 10.984375 C 58.152344 13.675781 56.445312 16.128906 54.253906 17.695312 C 52.0625 19.261719 49.429688 20.082031 46.8125 20.734375 C 44.199219 21.390625 42.175781 21.433594 39.074219 22.589844 C 38.800781 22.691406 38.496094 22.820312 38.1875 22.972656 C 37.582031 23.269531 36.972656 23.644531 36.566406 24.070312 C 36.5625 24.070312 36.558594 24.070312 36.546875 24.070312 C 36.972656 23.429688 37.539062 22.90625 38.175781 22.464844 C 38.988281 21.902344 39.910156 21.472656 40.824219 21.105469 C 43.355469 20.09375 45.332031 19.527344 47.632812 18.863281 C 49.933594 18.199219 52.25 17.34375 54.035156 15.75 C 56.074219 13.925781 57.25 11.210938 57.339844 8.472656 C 57.425781 5.738281 56.457031 3.011719 54.78125 0.839844 C 55.949219 3.445312 55.363281 6.597656 53.792969 8.980469 C 52.21875 11.363281 49.796875 13.0625 47.234375 14.320312 C 44.671875 15.578125 41.945312 16.453125 39.316406 17.554688 C 38.730469 17.800781 37.859375 18.125 36.890625 18.585938 C 35.351562 14.890625 32.425781 13.496094 32.425781 13.496094 C 35.53125 13.804688 36.578125 11.367188 36.578125 11.367188 C 35.675781 13.238281 30.042969 10.835938 28.292969 11.347656 C 26.539062 11.859375 25.964844 13.492188 25.964844 13.492188 C 27.683594 12.714844 29.039062 13.535156 28.386719 13.957031 C 27.730469 14.382812 25.414062 13.140625 23.757812 13.367188 C 22.5625 13.535156 22.453125 14.613281 22.453125 14.613281 C 23.382812 13.109375 27.695312 16.078125 27.695312 16.078125 L 28.253906 16.101562 L 27.6875 16.234375 C 27.789062 17.101562 27.671875 18.316406 27.46875 19.589844 C 25.820312 18.558594 24.128906 17.949219 23.183594 17.554688 C 20.566406 16.449219 17.839844 15.574219 15.277344 14.316406 C 12.71875 13.054688 10.292969 11.359375 8.722656 8.976562 C 7.15625 6.597656 6.570312 3.445312 7.734375 0.839844 C 6.066406 3.011719 5.097656 5.738281 5.179688 8.472656 C 5.265625 11.210938 6.4375 13.925781 8.480469 15.75 C 10.269531 17.34375 12.585938 18.199219 14.882812 18.863281 C 17.183594 19.527344 19.164062 20.09375 21.695312 21.105469 C 22.601562 21.472656 23.53125 21.902344 24.339844 22.464844 C 24.980469 22.90625 25.546875 23.429688 25.96875 24.070312 C 25.964844 24.070312 25.960938 24.070312 25.949219 24.070312 C 25.546875 23.648438 24.933594 23.269531 24.332031 22.972656 C 24.023438 22.820312 23.71875 22.691406 23.441406 22.589844 C 20.34375 21.433594 18.320312 21.390625 15.703125 20.734375 C 13.089844 20.082031 10.453125 19.269531 8.261719 17.695312 C 6.070312 16.125 4.363281 13.675781 4.296875 10.984375 C 3.003906 14.105469 4.019531 18.023438 6.667969 20.121094 Z M 6.667969 20.121094 " fill-opacity="1" fill-rule="nonzero"/></g><path fill="#b51dee" d="M 49.511719 29.070312 C 47.253906 28.582031 44.636719 27.484375 42.347656 27.148438 C 40.582031 26.890625 38.71875 27.015625 37.410156 27.996094 C 42.707031 28.480469 47.667969 29.574219 52.089844 31.152344 C 53.753906 30.503906 55.191406 29.273438 55.992188 27.675781 C 54.417969 29.378906 51.769531 29.5625 49.511719 29.070312 Z M 49.511719 29.070312 " fill-opacity="1" fill-rule="nonzero"/><path fill="#b51dee" d="M 20.183594 27.152344 C 17.894531 27.488281 15.277344 28.582031 13.019531 29.074219 C 10.761719 29.5625 8.113281 29.382812 6.546875 27.683594 C 7.34375 29.285156 8.785156 30.515625 10.449219 31.164062 C 14.871094 29.582031 19.832031 28.488281 25.125 28.007812 C 23.816406 27.019531 21.949219 26.894531 20.183594 27.152344 Z M 20.183594 27.152344 " fill-opacity="1" fill-rule="nonzero"/><path fill="#b51dee" d="M 139.203125 7.171875 C 137.308594 8.417969 129.902344 13.746094 131.234375 18.933594 C 132.398438 23.476562 135.722656 22.882812 137.761719 21.058594 C 138.765625 20.160156 139.152344 19.25 139.238281 19.058594 C 139.242188 19.042969 139.246094 19.039062 139.261719 19.035156 C 139.28125 19.027344 139.28125 19.027344 139.300781 19.035156 C 139.316406 19.042969 139.320312 19.042969 139.328125 19.0625 C 139.332031 19.070312 139.328125 19.085938 139.324219 19.097656 C 139.324219 19.101562 139.28125 19.199219 139.277344 19.207031 C 138.082031 21.851562 134.175781 24.101562 132.046875 21.164062 C 131.875 20.925781 131.40625 20.246094 131.074219 18.957031 C 129.851562 14.226562 135.65625 9.414062 138.226562 7.554688 C 138.554688 7.316406 138.828125 7.132812 139.019531 7.003906 L 139.046875 6.980469 L 139.25 6.640625 L 138.4375 5.851562 L 138.417969 5.632812 L 139.65625 6.160156 L 140.585938 5.488281 L 139.96875 4.683594 L 138.03125 3.171875 L 138.34375 2.953125 L 139.53125 3.617188 L 139.792969 3.4375 L 140.058594 3.78125 L 140.003906 3.90625 L 140.5625 4.199219 L 140.804688 4.019531 L 141.144531 4.480469 L 141.667969 4.757812 C 142.492188 4.074219 143.246094 3.679688 143.519531 3.9375 C 143.671875 4.277344 143.058594 4.867188 142.144531 5.421875 L 142.234375 6.007812 L 142.558594 6.480469 L 142.3125 6.652344 L 142.40625 7.273438 L 142.542969 7.261719 L 142.78125 7.625 L 142.523438 7.816406 L 142.769531 9.152344 L 142.457031 9.378906 L 141.660156 7.050781 L 141.097656 6.210938 L 140.164062 6.871094 L 140.257812 8.210938 L 140.054688 8.121094 L 139.578125 7.097656 Z M 132.828125 19.894531 C 132.8125 19.90625 132.8125 19.90625 132.792969 19.90625 C 132.765625 19.910156 132.769531 19.902344 132.75 19.886719 C 131.230469 18.5 131.914062 16.046875 131.984375 15.78125 C 131.996094 15.734375 132 15.734375 132.042969 15.710938 C 132.042969 15.710938 132.136719 15.699219 132.136719 15.699219 C 132.160156 15.71875 132.195312 15.730469 132.210938 15.757812 C 132.238281 15.808594 132.234375 15.8125 132.214844 15.867188 C 132.097656 16.257812 131.449219 18.476562 132.816406 19.816406 C 132.835938 19.832031 132.839844 19.832031 132.839844 19.859375 C 132.839844 19.878906 132.839844 19.878906 132.828125 19.894531 Z M 135.046875 9.6875 C 135.035156 9.671875 135.035156 9.671875 135.035156 9.652344 C 135.039062 9.625 135.042969 9.625 135.0625 9.609375 C 135.332031 9.363281 137.382812 7.367188 137.558594 7.179688 C 137.589844 7.140625 137.636719 7.140625 137.644531 7.140625 C 137.644531 7.140625 137.730469 7.175781 137.730469 7.175781 C 137.773438 7.269531 137.796875 7.285156 137.722656 7.359375 C 137.519531 7.558594 135.390625 9.464844 135.117188 9.691406 C 135.101562 9.703125 135.101562 9.707031 135.082031 9.703125 C 135.0625 9.703125 135.050781 9.6875 135.046875 9.6875 Z M 135.046875 9.6875 " fill-opacity="1" fill-rule="evenodd"/><g fill="#ffffff" fill-opacity="1"><g transform="translate(59.662779, 15.64146)"><g><path d="M 0.90625 0 L 0.90625 -2.296875 L 2.71875 -2.296875 L 2.71875 -11.53125 L 0.90625 -11.53125 L 0.90625 -13.8125 L 8.015625 -13.8125 C 8.859375 -13.8125 9.59375 -13.671875 10.21875 -13.390625 C 10.84375 -13.109375 11.328125 -12.707031 11.671875 -12.1875 C 12.023438 -11.664062 12.203125 -11.046875 12.203125 -10.328125 L 12.203125 -10.125 C 12.203125 -9.488281 12.082031 -8.96875 11.84375 -8.5625 C 11.601562 -8.164062 11.320312 -7.859375 11 -7.640625 C 10.675781 -7.429688 10.367188 -7.28125 10.078125 -7.1875 L 10.078125 -6.828125 C 10.367188 -6.742188 10.6875 -6.59375 11.03125 -6.375 C 11.375 -6.164062 11.664062 -5.851562 11.90625 -5.4375 C 12.15625 -5.03125 12.28125 -4.5 12.28125 -3.84375 L 12.28125 -3.65625 C 12.28125 -2.882812 12.097656 -2.226562 11.734375 -1.6875 C 11.378906 -1.144531 10.890625 -0.726562 10.265625 -0.4375 C 9.640625 -0.144531 8.914062 0 8.09375 0 Z M 5.328125 -2.375 L 7.78125 -2.375 C 8.34375 -2.375 8.796875 -2.507812 9.140625 -2.78125 C 9.492188 -3.0625 9.671875 -3.457031 9.671875 -3.96875 L 9.671875 -4.15625 C 9.671875 -4.675781 9.5 -5.070312 9.15625 -5.34375 C 8.8125 -5.625 8.351562 -5.765625 7.78125 -5.765625 L 5.328125 -5.765625 Z M 5.328125 -8.125 L 7.734375 -8.125 C 8.273438 -8.125 8.71875 -8.257812 9.0625 -8.53125 C 9.414062 -8.8125 9.59375 -9.195312 9.59375 -9.6875 L 9.59375 -9.890625 C 9.59375 -10.390625 9.421875 -10.773438 9.078125 -11.046875 C 8.734375 -11.316406 8.285156 -11.453125 7.734375 -11.453125 L 5.328125 -11.453125 Z M 5.328125 -8.125 "/></g></g></g><g fill="#ffffff" fill-opacity="1"><g transform="translate(72.76288, 15.64146)"><g><path d="M 5.84375 0.28125 C 4.863281 0.28125 4.003906 0.0703125 3.265625 -0.34375 C 2.523438 -0.757812 1.945312 -1.34375 1.53125 -2.09375 C 1.113281 -2.851562 0.90625 -3.75 0.90625 -4.78125 L 0.90625 -5.015625 C 0.90625 -6.035156 1.109375 -6.925781 1.515625 -7.6875 C 1.921875 -8.445312 2.492188 -9.03125 3.234375 -9.4375 C 3.972656 -9.851562 4.828125 -10.0625 5.796875 -10.0625 C 6.765625 -10.0625 7.601562 -9.847656 8.3125 -9.421875 C 9.019531 -8.992188 9.570312 -8.398438 9.96875 -7.640625 C 10.363281 -6.890625 10.5625 -6.015625 10.5625 -5.015625 L 10.5625 -4.15625 L 3.4375 -4.15625 C 3.457031 -3.488281 3.703125 -2.941406 4.171875 -2.515625 C 4.648438 -2.097656 5.234375 -1.890625 5.921875 -1.890625 C 6.617188 -1.890625 7.128906 -2.039062 7.453125 -2.34375 C 7.785156 -2.644531 8.035156 -2.984375 8.203125 -3.359375 L 10.234375 -2.296875 C 10.054688 -1.953125 9.789062 -1.578125 9.4375 -1.171875 C 9.09375 -0.773438 8.628906 -0.429688 8.046875 -0.140625 C 7.472656 0.136719 6.738281 0.28125 5.84375 0.28125 Z M 3.453125 -6.015625 L 8.03125 -6.015625 C 7.976562 -6.585938 7.75 -7.039062 7.34375 -7.375 C 6.945312 -7.71875 6.425781 -7.890625 5.78125 -7.890625 C 5.113281 -7.890625 4.582031 -7.71875 4.1875 -7.375 C 3.789062 -7.039062 3.546875 -6.585938 3.453125 -6.015625 Z M 3.453125 -6.015625 "/></g></g></g><g fill="#ffffff" fill-opacity="1"><g transform="translate(84.146547, 15.64146)"><g><path d="M 1.375 0 L 1.375 -9.78125 L 3.828125 -9.78125 L 3.828125 -8.5 L 4.1875 -8.5 C 4.34375 -8.84375 4.632812 -9.171875 5.0625 -9.484375 C 5.5 -9.796875 6.160156 -9.953125 7.046875 -9.953125 C 7.804688 -9.953125 8.472656 -9.773438 9.046875 -9.421875 C 9.617188 -9.078125 10.0625 -8.597656 10.375 -7.984375 C 10.695312 -7.367188 10.859375 -6.65625 10.859375 -5.84375 L 10.859375 0 L 8.375 0 L 8.375 -5.640625 C 8.375 -6.378906 8.191406 -6.929688 7.828125 -7.296875 C 7.460938 -7.671875 6.945312 -7.859375 6.28125 -7.859375 C 5.507812 -7.859375 4.914062 -7.601562 4.5 -7.09375 C 4.082031 -6.582031 3.875 -5.875 3.875 -4.96875 L 3.875 0 Z M 1.375 0 "/></g></g></g><g fill="#ffffff" fill-opacity="1"><g transform="translate(96.299653, 15.64146)"><g><path d="M 0.90625 -4.859375 L 0.90625 -5.171875 C 0.90625 -6.191406 1.109375 -7.066406 1.515625 -7.796875 C 1.921875 -8.535156 2.460938 -9.097656 3.140625 -9.484375 C 3.816406 -9.867188 4.5625 -10.0625 5.375 -10.0625 C 6.257812 -10.0625 6.929688 -9.90625 7.390625 -9.59375 C 7.859375 -9.28125 8.195312 -8.953125 8.40625 -8.609375 L 8.765625 -8.609375 L 8.765625 -9.78125 L 11.203125 -9.78125 L 11.203125 1.734375 C 11.203125 2.410156 11.003906 2.945312 10.609375 3.34375 C 10.222656 3.75 9.695312 3.953125 9.03125 3.953125 L 2.484375 3.953125 L 2.484375 1.78125 L 8.171875 1.78125 C 8.535156 1.78125 8.71875 1.582031 8.71875 1.1875 L 8.71875 -1.359375 L 8.375 -1.359375 C 8.238281 -1.148438 8.050781 -0.9375 7.8125 -0.71875 C 7.570312 -0.5 7.253906 -0.316406 6.859375 -0.171875 C 6.472656 -0.0234375 5.976562 0.046875 5.375 0.046875 C 4.5625 0.046875 3.816406 -0.144531 3.140625 -0.53125 C 2.460938 -0.925781 1.921875 -1.488281 1.515625 -2.21875 C 1.109375 -2.945312 0.90625 -3.828125 0.90625 -4.859375 Z M 6.078125 -2.125 C 6.835938 -2.125 7.472656 -2.367188 7.984375 -2.859375 C 8.503906 -3.347656 8.765625 -4.03125 8.765625 -4.90625 L 8.765625 -5.109375 C 8.765625 -6.003906 8.507812 -6.691406 8 -7.171875 C 7.5 -7.648438 6.859375 -7.890625 6.078125 -7.890625 C 5.316406 -7.890625 4.675781 -7.648438 4.15625 -7.171875 C 3.644531 -6.691406 3.390625 -6.003906 3.390625 -5.109375 L 3.390625 -4.90625 C 3.390625 -4.03125 3.644531 -3.347656 4.15625 -2.859375 C 4.675781 -2.367188 5.316406 -2.125 6.078125 -2.125 Z M 6.078125 -2.125 "/></g></g></g><g fill="#ffffff" fill-opacity="1"><g transform="translate(108.88679, 15.64146)"><g><path d="M 4.421875 0.28125 C 3.722656 0.28125 3.097656 0.160156 2.546875 -0.078125 C 1.992188 -0.328125 1.554688 -0.6875 1.234375 -1.15625 C 0.910156 -1.625 0.75 -2.191406 0.75 -2.859375 C 0.75 -3.535156 0.910156 -4.097656 1.234375 -4.546875 C 1.554688 -5.003906 2.003906 -5.347656 2.578125 -5.578125 C 3.148438 -5.804688 3.800781 -5.921875 4.53125 -5.921875 L 7.21875 -5.921875 L 7.21875 -6.46875 C 7.21875 -6.925781 7.070312 -7.300781 6.78125 -7.59375 C 6.5 -7.894531 6.039062 -8.046875 5.40625 -8.046875 C 4.789062 -8.046875 4.332031 -7.90625 4.03125 -7.625 C 3.726562 -7.34375 3.53125 -6.976562 3.4375 -6.53125 L 1.140625 -7.296875 C 1.296875 -7.796875 1.546875 -8.253906 1.890625 -8.671875 C 2.242188 -9.085938 2.710938 -9.421875 3.296875 -9.671875 C 3.890625 -9.929688 4.609375 -10.0625 5.453125 -10.0625 C 6.734375 -10.0625 7.75 -9.738281 8.5 -9.09375 C 9.25 -8.445312 9.625 -7.515625 9.625 -6.296875 L 9.625 -2.640625 C 9.625 -2.242188 9.8125 -2.046875 10.1875 -2.046875 L 10.96875 -2.046875 L 10.96875 0 L 9.3125 0 C 8.820312 0 8.421875 -0.113281 8.109375 -0.34375 C 7.796875 -0.582031 7.640625 -0.898438 7.640625 -1.296875 L 7.640625 -1.328125 L 7.265625 -1.328125 C 7.210938 -1.160156 7.09375 -0.945312 6.90625 -0.6875 C 6.71875 -0.4375 6.425781 -0.210938 6.03125 -0.015625 C 5.644531 0.179688 5.109375 0.28125 4.421875 0.28125 Z M 4.859375 -1.734375 C 5.554688 -1.734375 6.125 -1.925781 6.5625 -2.3125 C 7 -2.707031 7.21875 -3.226562 7.21875 -3.875 L 7.21875 -4.0625 L 4.71875 -4.0625 C 4.257812 -4.0625 3.894531 -3.960938 3.625 -3.765625 C 3.363281 -3.566406 3.234375 -3.289062 3.234375 -2.9375 C 3.234375 -2.582031 3.367188 -2.289062 3.640625 -2.0625 C 3.921875 -1.84375 4.328125 -1.734375 4.859375 -1.734375 Z M 4.859375 -1.734375 "/></g></g></g><g fill="#ffffff" fill-opacity="1"><g transform="translate(120.290187, 15.64146)"><g><path d="M 1.375 0 L 1.375 -13.8125 L 3.875 -13.8125 L 3.875 0 Z M 1.375 0 "/></g></g></g><g fill="#ffffff" fill-opacity="1"><g transform="translate(74.254931, 31.578935)"><g><path d="M 2.40625 0 L 0.59375 -13.8125 L 3.171875 -13.8125 L 4.515625 -1.8125 L 4.875 -1.8125 L 6.609375 -13.8125 L 11.109375 -13.8125 L 12.84375 -1.8125 L 13.203125 -1.8125 L 14.546875 -13.8125 L 17.125 -13.8125 L 15.3125 0 L 10.8125 0 L 9.03125 -12.28125 L 8.6875 -12.28125 L 6.90625 0 Z M 2.40625 0 "/></g></g></g><g fill="#ffffff" fill-opacity="1"><g transform="translate(91.971627, 31.578935)"><g><path d="M 1.375 0 L 1.375 -9.78125 L 3.875 -9.78125 L 3.875 0 Z M 2.625 -10.9375 C 2.175781 -10.9375 1.796875 -11.078125 1.484375 -11.359375 C 1.179688 -11.648438 1.03125 -12.035156 1.03125 -12.515625 C 1.03125 -12.984375 1.179688 -13.363281 1.484375 -13.65625 C 1.796875 -13.945312 2.175781 -14.09375 2.625 -14.09375 C 3.082031 -14.09375 3.460938 -13.945312 3.765625 -13.65625 C 4.066406 -13.363281 4.21875 -12.984375 4.21875 -12.515625 C 4.21875 -12.035156 4.066406 -11.648438 3.765625 -11.359375 C 3.460938 -11.078125 3.082031 -10.9375 2.625 -10.9375 Z M 2.625 -10.9375 "/></g></g></g><g fill="#ffffff" fill-opacity="1"><g transform="translate(97.219552, 31.578935)"><g><path d="M 1.375 0 L 1.375 -9.78125 L 3.828125 -9.78125 L 3.828125 -8.5 L 4.1875 -8.5 C 4.34375 -8.84375 4.632812 -9.171875 5.0625 -9.484375 C 5.5 -9.796875 6.160156 -9.953125 7.046875 -9.953125 C 7.804688 -9.953125 8.472656 -9.773438 9.046875 -9.421875 C 9.617188 -9.078125 10.0625 -8.597656 10.375 -7.984375 C 10.695312 -7.367188 10.859375 -6.65625 10.859375 -5.84375 L 10.859375 0 L 8.375 0 L 8.375 -5.640625 C 8.375 -6.378906 8.191406 -6.929688 7.828125 -7.296875 C 7.460938 -7.671875 6.945312 -7.859375 6.28125 -7.859375 C 5.507812 -7.859375 4.914062 -7.601562 4.5 -7.09375 C 4.082031 -6.582031 3.875 -5.875 3.875 -4.96875 L 3.875 0 Z M 1.375 0 "/></g></g></g><g fill="#ffffff" fill-opacity="1"><g transform="translate(109.372657, 31.578935)"><g><path d="M 0.90625 -4.859375 L 0.90625 -5.171875 C 0.90625 -6.191406 1.109375 -7.066406 1.515625 -7.796875 C 1.921875 -8.535156 2.460938 -9.097656 3.140625 -9.484375 C 3.816406 -9.867188 4.5625 -10.0625 5.375 -10.0625 C 6.257812 -10.0625 6.929688 -9.90625 7.390625 -9.59375 C 7.859375 -9.28125 8.195312 -8.953125 8.40625 -8.609375 L 8.765625 -8.609375 L 8.765625 -9.78125 L 11.203125 -9.78125 L 11.203125 1.734375 C 11.203125 2.410156 11.003906 2.945312 10.609375 3.34375 C 10.222656 3.75 9.695312 3.953125 9.03125 3.953125 L 2.484375 3.953125 L 2.484375 1.78125 L 8.171875 1.78125 C 8.535156 1.78125 8.71875 1.582031 8.71875 1.1875 L 8.71875 -1.359375 L 8.375 -1.359375 C 8.238281 -1.148438 8.050781 -0.9375 7.8125 -0.71875 C 7.570312 -0.5 7.253906 -0.316406 6.859375 -0.171875 C 6.472656 -0.0234375 5.976562 0.046875 5.375 0.046875 C 4.5625 0.046875 3.816406 -0.144531 3.140625 -0.53125 C 2.460938 -0.925781 1.921875 -1.488281 1.515625 -2.21875 C 1.109375 -2.945312 0.90625 -3.828125 0.90625 -4.859375 Z M 6.078125 -2.125 C 6.835938 -2.125 7.472656 -2.367188 7.984375 -2.859375 C 8.503906 -3.347656 8.765625 -4.03125 8.765625 -4.90625 L 8.765625 -5.109375 C 8.765625 -6.003906 8.507812 -6.691406 8 -7.171875 C 7.5 -7.648438 6.859375 -7.890625 6.078125 -7.890625 C 5.316406 -7.890625 4.675781 -7.648438 4.15625 -7.171875 C 3.644531 -6.691406 3.390625 -6.003906 3.390625 -5.109375 L 3.390625 -4.90625 C 3.390625 -4.03125 3.644531 -3.347656 4.15625 -2.859375 C 4.675781 -2.367188 5.316406 -2.125 6.078125 -2.125 Z M 6.078125 -2.125 "/></g></g></g><g fill="#ffffff" fill-opacity="1"><g transform="translate(121.959795, 31.578935)"><g><path d="M 5.453125 0.28125 C 4.171875 0.28125 3.117188 0.00390625 2.296875 -0.546875 C 1.484375 -1.097656 0.992188 -1.890625 0.828125 -2.921875 L 3.125 -3.515625 C 3.207031 -3.054688 3.359375 -2.691406 3.578125 -2.421875 C 3.796875 -2.160156 4.066406 -1.972656 4.390625 -1.859375 C 4.710938 -1.753906 5.066406 -1.703125 5.453125 -1.703125 C 6.023438 -1.703125 6.445312 -1.800781 6.71875 -2 C 7 -2.207031 7.140625 -2.460938 7.140625 -2.765625 C 7.140625 -3.066406 7.007812 -3.296875 6.75 -3.453125 C 6.488281 -3.617188 6.066406 -3.757812 5.484375 -3.875 L 4.9375 -3.96875 C 4.25 -4.09375 3.617188 -4.269531 3.046875 -4.5 C 2.484375 -4.738281 2.03125 -5.0625 1.6875 -5.46875 C 1.351562 -5.875 1.1875 -6.398438 1.1875 -7.046875 C 1.1875 -8.015625 1.539062 -8.757812 2.25 -9.28125 C 2.957031 -9.800781 3.890625 -10.0625 5.046875 -10.0625 C 6.140625 -10.0625 7.046875 -9.816406 7.765625 -9.328125 C 8.492188 -8.847656 8.972656 -8.210938 9.203125 -7.421875 L 6.890625 -6.703125 C 6.785156 -7.203125 6.570312 -7.554688 6.25 -7.765625 C 5.925781 -7.984375 5.523438 -8.09375 5.046875 -8.09375 C 4.578125 -8.09375 4.21875 -8.007812 3.96875 -7.84375 C 3.71875 -7.675781 3.59375 -7.445312 3.59375 -7.15625 C 3.59375 -6.84375 3.722656 -6.609375 3.984375 -6.453125 C 4.242188 -6.304688 4.597656 -6.195312 5.046875 -6.125 L 5.609375 -6.015625 C 6.335938 -5.890625 7 -5.71875 7.59375 -5.5 C 8.195312 -5.28125 8.671875 -4.96875 9.015625 -4.5625 C 9.367188 -4.164062 9.546875 -3.625 9.546875 -2.9375 C 9.546875 -1.914062 9.175781 -1.125 8.4375 -0.5625 C 7.695312 0 6.703125 0.28125 5.453125 0.28125 Z M 5.453125 0.28125 "/></g></g></g></svg>