<svg xmlns="http://www.w3.org/2000/svg" xmlns:xlink="http://www.w3.org/1999/xlink" width="50" zoomAndPan="magnify" viewBox="0 0 37.5 37.499999" height="50" preserveAspectRatio="xMidYMid meet" version="1.0"><defs><clipPath id="c4ab4f41cb"><path d="M 0 24 L 37 24 L 37 29.050781 L 0 29.050781 Z M 0 24 " clip-rule="nonzero"/></clipPath><clipPath id="8a566c6dca"><path d="M 1 7.585938 L 36 7.585938 L 36 24 L 1 24 Z M 1 7.585938 " clip-rule="nonzero"/></clipPath></defs><g clip-path="url(#c4ab4f41cb)"><path fill="#b51dee" d="M 18.503906 26.25 C 25.289062 26.25 31.625 27.402344 37 29.40625 C 32.488281 26.316406 25.875 24.371094 18.503906 24.371094 C 11.132812 24.371094 4.519531 26.320312 0.00390625 29.410156 C 5.382812 27.40625 11.71875 26.25 18.503906 26.25 Z M 18.503906 26.25 " fill-opacity="1" fill-rule="nonzero"/></g><g clip-path="url(#8a566c6dca)"><path fill="#b51dee" d="M 3.660156 19.222656 C 4.777344 20.109375 6.234375 20.445312 7.648438 20.609375 C 9.066406 20.773438 10.511719 20.789062 11.894531 21.148438 C 12.347656 21.265625 12.8125 21.390625 13.261719 21.550781 C 13.402344 21.601562 13.542969 21.652344 13.675781 21.710938 C 14.429688 22.027344 15.085938 22.472656 15.460938 23.191406 C 14.875 22.425781 13.949219 22.09375 12.957031 21.941406 C 12.929688 21.9375 12.898438 21.933594 12.871094 21.929688 C 12.265625 21.84375 11.640625 21.820312 11.050781 21.804688 C 9.472656 21.757812 7.886719 22.035156 6.320312 21.863281 C 4.75 21.6875 3.101562 20.929688 2.480469 19.472656 C 2.203125 20.65625 2.683594 21.984375 3.652344 22.714844 C 4.789062 23.5625 6.347656 23.554688 7.742188 23.300781 C 9.140625 23.042969 10.515625 22.570312 11.933594 22.632812 C 13.085938 22.683594 14.417969 23.074219 15.066406 23.953125 C 16.1875 23.859375 17.335938 23.808594 18.5 23.808594 C 19.667969 23.808594 20.8125 23.859375 21.933594 23.953125 C 22.585938 23.074219 23.917969 22.683594 25.066406 22.632812 C 26.484375 22.570312 27.859375 23.042969 29.257812 23.300781 C 30.652344 23.554688 32.214844 23.5625 33.347656 22.714844 C 34.320312 21.984375 34.796875 20.65625 34.519531 19.472656 C 33.902344 20.925781 32.25 21.6875 30.683594 21.863281 C 29.113281 22.035156 27.527344 21.761719 25.949219 21.804688 C 25.363281 21.816406 24.738281 21.839844 24.128906 21.929688 C 24.101562 21.933594 24.070312 21.9375 24.042969 21.941406 C 23.050781 22.09375 22.125 22.425781 21.539062 23.191406 C 21.914062 22.472656 22.574219 22.027344 23.324219 21.710938 C 23.460938 21.652344 23.601562 21.597656 23.738281 21.550781 C 24.1875 21.390625 24.65625 21.265625 25.109375 21.148438 C 26.488281 20.789062 27.933594 20.773438 29.351562 20.609375 C 30.765625 20.449219 32.226562 20.113281 33.339844 19.222656 C 34.9375 17.957031 35.550781 15.59375 34.773438 13.707031 C 34.730469 15.335938 33.699219 16.816406 32.378906 17.761719 C 31.054688 18.707031 29.464844 19.199219 27.886719 19.59375 C 26.308594 19.988281 25.085938 20.015625 23.21875 20.714844 C 23.050781 20.777344 22.867188 20.851562 22.683594 20.945312 C 22.316406 21.125 21.949219 21.351562 21.703125 21.605469 C 21.699219 21.605469 21.699219 21.605469 21.691406 21.605469 C 21.949219 21.21875 22.289062 20.90625 22.675781 20.636719 C 23.164062 20.296875 23.722656 20.039062 24.273438 19.820312 C 25.800781 19.207031 26.992188 18.863281 28.382812 18.464844 C 29.769531 18.0625 31.167969 17.546875 32.246094 16.585938 C 33.476562 15.484375 34.1875 13.847656 34.238281 12.195312 C 34.292969 10.542969 33.707031 8.898438 32.695312 7.585938 C 33.398438 9.160156 33.046875 11.0625 32.097656 12.5 C 31.148438 13.9375 29.6875 14.964844 28.140625 15.722656 C 26.59375 16.484375 24.949219 17.007812 23.363281 17.675781 C 23.007812 17.824219 22.484375 18.019531 21.898438 18.296875 C 20.972656 16.066406 19.203125 15.226562 19.203125 15.226562 C 21.078125 15.410156 21.710938 13.941406 21.710938 13.941406 C 21.164062 15.070312 17.765625 13.621094 16.710938 13.929688 C 15.652344 14.238281 15.304688 15.222656 15.304688 15.222656 C 16.34375 14.753906 17.160156 15.25 16.765625 15.503906 C 16.371094 15.761719 14.972656 15.011719 13.972656 15.148438 C 13.253906 15.25 13.183594 15.898438 13.183594 15.898438 C 13.746094 14.992188 16.351562 16.78125 16.351562 16.78125 L 16.6875 16.796875 L 16.34375 16.878906 C 16.40625 17.402344 16.335938 18.132812 16.210938 18.902344 C 15.21875 18.28125 14.199219 17.914062 13.628906 17.675781 C 12.046875 17.007812 10.402344 16.480469 8.855469 15.71875 C 7.3125 14.960938 5.847656 13.933594 4.898438 12.5 C 3.953125 11.0625 3.601562 9.160156 4.304688 7.585938 C 3.296875 8.898438 2.710938 10.542969 2.761719 12.195312 C 2.816406 13.847656 3.519531 15.484375 4.753906 16.585938 C 5.832031 17.546875 7.230469 18.0625 8.617188 18.464844 C 10.003906 18.863281 11.199219 19.207031 12.730469 19.820312 C 13.277344 20.039062 13.835938 20.296875 14.324219 20.636719 C 14.710938 20.90625 15.050781 21.21875 15.308594 21.605469 C 15.304688 21.605469 15.300781 21.605469 15.296875 21.605469 C 15.050781 21.351562 14.683594 21.125 14.320312 20.945312 C 14.132812 20.851562 13.949219 20.777344 13.78125 20.714844 C 11.914062 20.015625 10.691406 19.988281 9.113281 19.59375 C 7.535156 19.199219 5.945312 18.707031 4.621094 17.761719 C 3.300781 16.8125 2.269531 15.335938 2.230469 13.707031 C 1.449219 15.59375 2.0625 17.957031 3.660156 19.222656 Z M 3.660156 19.222656 " fill-opacity="1" fill-rule="nonzero"/></g><path fill="#b51dee" d="M 29.515625 24.625 C 28.152344 24.328125 26.574219 23.667969 25.195312 23.464844 C 24.128906 23.308594 23.003906 23.382812 22.214844 23.976562 C 25.410156 24.269531 28.402344 24.925781 31.070312 25.882812 C 32.074219 25.488281 32.945312 24.746094 33.425781 23.78125 C 32.476562 24.808594 30.878906 24.921875 29.515625 24.625 Z M 29.515625 24.625 " fill-opacity="1" fill-rule="nonzero"/><path fill="#b51dee" d="M 11.816406 23.46875 C 10.433594 23.671875 8.855469 24.328125 7.492188 24.628906 C 6.128906 24.921875 4.53125 24.8125 3.585938 23.789062 C 4.070312 24.753906 4.9375 25.496094 5.941406 25.886719 C 8.609375 24.933594 11.605469 24.273438 14.800781 23.980469 C 14.011719 23.386719 12.882812 23.3125 11.816406 23.46875 Z M 11.816406 23.46875 " fill-opacity="1" fill-rule="nonzero"/></svg>